<svg xmlns="http://www.w3.org/2000/svg" width="130" height="126" viewBox="0 0 130 126" fill="none">
<path fill-rule="evenodd" clip-rule="evenodd" d="M62.6566 9.18318C75.2728 10.3945 88.2803 4.19381 99.7476 9.57732C112.353 15.4949 122.531 26.4879 127.313 39.537C132.19 52.8462 129.635 67.3075 125.916 80.9836C122.02 95.3127 117.847 110.987 105.591 119.416C93.4296 127.78 77.4293 124.367 62.6566 124.492C47.7294 124.619 30.5412 129.815 19.1869 120.151C7.86949 110.518 11.595 92.5785 8.19062 78.1344C5.16238 65.286 -1.65111 53.348 0.367683 40.304C2.61939 25.7551 6.78782 8.5136 19.9862 1.91939C33.2105 -4.68772 47.9335 7.76961 62.6566 9.18318Z" fill="#B0DFC4"/>





</svg>