<svg xmlns="http://www.w3.org/2000/svg" width="113" height="119" viewBox="0 0 113 119" fill="none">
<path fill-rule="evenodd" clip-rule="evenodd" d="M67.091 0.0662966C80.443 -0.945192 92.0521 9.80009 100.865 19.8185C108.464 28.4565 110.418 40.1005 112.271 51.425C113.856 61.1107 112.635 70.4741 110.729 80.1024C108.534 91.1903 108.846 103.996 100.372 111.532C91.6891 119.252 78.7381 119.206 67.091 118.906C55.7099 118.612 44.8818 115.539 35.0438 109.845C24.2521 103.599 14.0155 96.0524 8.42801 84.9537C2.23708 72.6562 -3.39845 57.5999 2.47391 45.1491C8.28764 32.8226 25.6501 32.4894 36.8619 24.6671C47.7886 17.0436 53.7787 1.07478 67.091 0.0662966Z" fill="#E6C54D"/>







</svg>