<svg xmlns="http://www.w3.org/2000/svg" width="121" height="126" viewBox="0 0 121 126" fill="none">
<path fill-rule="evenodd" clip-rule="evenodd" d="M64.2965 0.329168C78.1227 2.1255 89.3985 12.3625 97.9294 23.3499C104.965 32.4115 103.354 44.7834 107.196 55.5812C111.201 66.8372 122.413 75.934 120.852 87.7744C119.22 100.148 110.583 112.226 99.075 117.156C88.0381 121.885 76.2527 110.83 64.2965 112.005C49.9914 113.411 36.8861 131.155 24.1475 124.52C11.9702 118.177 18.0562 98.8289 13.9294 85.7713C9.86044 72.8967 -1.60925 62.0946 0.189995 48.7164C2.10704 34.4624 12.1168 22.3806 23.623 13.6958C35.2877 4.8913 49.7848 -1.55623 64.2965 0.329168Z" fill="#6EB1C7"/>




</svg>